<svg id="Capa_1" enable-background="new 0 0 495.002 495.002" height="512" viewBox="0 0 495.002 495.002" width="512" xmlns="http://www.w3.org/2000/svg" xmlns:xlink="http://www.w3.org/1999/xlink"><linearGradient id="SVGID_1_" gradientUnits="userSpaceOnUse" x1="617.538" x2="-122.462" y1="99.768" y2="417.768"><stop offset=".007" stop-color="#9494ff"/><stop offset=".992" stop-color="#ffe8dc" stop-opacity="0"/></linearGradient><g><path d="m403.344 194.486c1.003-8.034 1.494-16.244 1.435-24.593-.658-93.225-70.63-169.299-156.259-169.889-87.333-.603-158.302 76.292-158.302 171.233 0 7.886.49 15.647 1.44 23.249 3.846 30.805-9.404 61.246-33.493 77.94-33.873 23.474-54.164 53.372-54.164 85.93 0 75.468 109.019 136.646 243.5 136.646s243.5-61.179 243.5-136.646c0-32.559-20.292-62.457-54.165-85.931-24.089-16.693-37.338-47.134-33.492-77.939z" fill="url(#SVGID_1_)"/><g><g><path d="m416.66 98.042v335.64c0 5.943-4.817 10.76-10.76 10.76h-23.436c-1.425 0-2.604-1.014-2.937-2.4-1.08-4.492-5.123-7.83-9.947-7.83-4.815 0-8.857 3.338-9.937 7.83-.333 1.386-1.512 2.4-2.937 2.4h-237.252c-1.425 0-2.604-1.014-2.937-2.4-1.08-4.492-5.122-7.83-9.937-7.83-4.824 0-8.867 3.338-9.947 7.83-.333 1.386-1.512 2.4-2.937 2.4h-23.436c-5.943 0-10.76-4.817-10.76-10.76v-335.64c0-5.943 4.817-10.76 10.76-10.76h23.436c1.425 0 2.604 1.014 2.937 2.4 1.08 4.492 5.123 7.83 9.947 7.83 4.815 0 8.857-3.338 9.937-7.83.333-1.386 1.512-2.4 2.937-2.4h237.252c1.425 0 2.604 1.014 2.937 2.4 1.08 4.492 5.122 7.83 9.937 7.83 4.824 0 8.867-3.338 9.947-7.83.333-1.386 1.512-2.4 2.937-2.4h23.436c5.942 0 10.76 4.817 10.76 10.76z" fill="#00c" opacity=".1"/><path d="m416.66 71.042v335.64c0 5.943-4.817 10.76-10.76 10.76h-23.436c-1.425 0-2.604-1.014-2.937-2.4-1.08-4.492-5.123-7.83-9.947-7.83-4.815 0-8.857 3.338-9.937 7.83-.333 1.386-1.512 2.4-2.937 2.4h-237.252c-1.425 0-2.604-1.014-2.937-2.4-1.08-4.492-5.122-7.83-9.937-7.83-4.824 0-8.867 3.338-9.947 7.83-.333 1.386-1.512 2.4-2.937 2.4h-23.436c-5.943 0-10.76-4.817-10.76-10.76v-335.64c0-5.943 4.817-10.76 10.76-10.76h23.436c1.425 0 2.604 1.014 2.937 2.4 1.08 4.492 5.123 7.83 9.947 7.83 4.815 0 8.857-3.338 9.937-7.83.333-1.386 1.512-2.4 2.937-2.4h237.252c1.425 0 2.604 1.014 2.937 2.4 1.08 4.492 5.122 7.83 9.937 7.83 4.824 0 8.867-3.338 9.947-7.83.333-1.386 1.512-2.4 2.937-2.4h23.436c5.942 0 10.76 4.817 10.76 10.76z" fill="#6c6cff"/><g fill="#ffab66"><path d="m342.08 194.889v87.945l47.898-13.951c2.134-.622 3.602-2.578 3.602-4.801v-50.443c0-2.223-1.468-4.179-3.602-4.801z"/><path d="m134.08 194.889v87.945l-47.898-13.951c-2.134-.622-3.602-2.578-3.602-4.801v-50.443c0-2.223 1.468-4.179 3.602-4.801z"/></g><g fill="#ffab66"><path d="m393.58 339.625v11.729c0 1.326-.527 2.598-1.464 3.536l-28.641 28.641c-.938.938-2.209 1.464-3.536 1.464h-50.359c-2.761 0-5-2.239-5-5v-3.05c0-2.761-2.239-5-5-5h-123c-2.761 0-5 2.239-5 5v3.05c0 2.761-2.239 5-5 5h-50.359c-1.326 0-2.598-.527-3.536-1.464l-28.641-28.641c-.938-.938-1.464-2.209-1.464-3.536v-11.729c0-2.761 2.239-5 5-5h301c2.761 0 5 2.239 5 5z"/><path d="m82.58 138.099v-11.729c0-1.326.527-2.598 1.464-3.536l28.641-28.641c.938-.938 2.209-1.464 3.536-1.464h50.359c2.761 0 5 2.239 5 5v3.05c0 2.761 2.239 5 5 5h123c2.761 0 5-2.239 5-5v-3.05c0-2.761 2.239-5 5-5h50.359c1.326 0 2.598.527 3.536 1.464l28.641 28.641c.938.938 1.464 2.209 1.464 3.536v11.729c0 2.761-2.239 5-5 5h-301c-2.762 0-5-2.239-5-5z"/></g><g><path d="m416.659 148.669c-2.762 0-5-2.239-5-5v-72.627c0-3.176-2.584-5.76-5.76-5.76h-21.93c-2.103 6.092-7.823 10.23-14.391 10.23-6.562 0-12.278-4.138-14.38-10.23h-234.238c-2.103 6.092-7.82 10.23-14.38 10.23-6.566 0-12.287-4.138-14.39-10.23h-21.93c-3.176 0-5.76 2.584-5.76 5.76v72.626c0 2.761-2.239 5-5 5s-5-2.239-5-5v-72.626c0-8.69 7.07-15.76 15.76-15.76h23.436c3.71 0 6.917 2.563 7.798 6.231.566 2.354 2.657 3.999 5.085 3.999 2.422 0 4.51-1.645 5.076-3.999.881-3.668 4.088-6.231 7.798-6.231h237.252c3.71 0 6.916 2.563 7.798 6.231.565 2.355 2.652 3.999 5.075 3.999 2.429 0 4.521-1.644 5.086-3.999.882-3.669 4.089-6.231 7.799-6.231h23.436c8.69 0 15.76 7.07 15.76 15.76v72.626c0 2.762-2.238 5.001-5 5.001z" fill="#00c"/></g><g><path d="m405.899 422.442h-23.436c-3.71 0-6.917-2.563-7.799-6.231-.565-2.355-2.657-3.999-5.086-3.999-2.423 0-4.51 1.644-5.075 3.998-.882 3.67-4.088 6.232-7.798 6.232h-237.251c-3.71 0-6.917-2.563-7.799-6.232-.565-2.354-2.653-3.999-5.075-3.999-2.428 0-4.52 1.645-5.085 3.999-.882 3.669-4.089 6.231-7.799 6.231h-23.436c-8.69 0-15.76-7.07-15.76-15.76v-229.012c0-2.761 2.239-5 5-5s5 2.239 5 5v229.013c0 3.176 2.584 5.76 5.76 5.76h21.929c2.103-6.092 7.824-10.23 14.391-10.23 6.561 0 12.279 4.138 14.381 10.23h234.238c2.102-6.092 7.819-10.23 14.381-10.23 6.567 0 12.289 4.138 14.391 10.23h21.93c3.176 0 5.76-2.584 5.76-5.76v-229.013c0-2.761 2.238-5 5-5s5 2.239 5 5v229.013c-.002 8.691-7.071 15.76-15.762 15.76z" fill="#00c"/></g><path d="m343.175 354.717h-210.191c-5.942 0-10.76-4.817-10.76-10.76v-210.191c0-5.942 4.817-10.76 10.76-10.76h210.191c5.942 0 10.76 4.817 10.76 10.76v210.191c0 5.943-4.817 10.76-10.76 10.76z" fill="#ebebff"/><g><g><path d="m377.582 347.324c-2.762 0-5-2.239-5-5v-206.924c0-2.761 2.238-5 5-5s5 2.239 5 5v206.923c0 2.762-2.238 5.001-5 5.001z" fill="#00c"/></g><g><path d="m98.578 347.324c-2.761 0-5-2.239-5-5v-206.924c0-2.761 2.239-5 5-5s5 2.239 5 5v206.923c0 2.762-2.239 5.001-5 5.001z" fill="#00c"/></g></g><g><g><g><g><path d="m187.58 83.527c-2.762 0-5-2.239-5-5v-.115c0-2.761 2.238-5 5-5s5 2.239 5 5v.115c0 2.762-2.239 5-5 5z" fill="#4d4dff"/></g><g><path d="m204.413 83.527c-2.762 0-5-2.239-5-5v-.115c0-2.761 2.238-5 5-5s5 2.239 5 5v.115c0 2.762-2.238 5-5 5z" fill="#4d4dff"/></g><g><path d="m221.246 83.527c-2.762 0-5-2.239-5-5v-.115c0-2.761 2.238-5 5-5s5 2.239 5 5v.115c0 2.762-2.238 5-5 5z" fill="#4d4dff"/></g><g><path d="m238.08 83.527c-2.762 0-5-2.239-5-5v-.115c0-2.761 2.238-5 5-5s5 2.239 5 5v.115c0 2.762-2.239 5-5 5z" fill="#4d4dff"/></g><g><path d="m254.913 83.527c-2.762 0-5-2.239-5-5v-.115c0-2.761 2.238-5 5-5s5 2.239 5 5v.115c0 2.762-2.238 5-5 5z" fill="#4d4dff"/></g><g><path d="m271.746 83.527c-2.762 0-5-2.239-5-5v-.115c0-2.761 2.238-5 5-5s5 2.239 5 5v.115c0 2.762-2.238 5-5 5z" fill="#4d4dff"/></g><g><path d="m288.58 83.527c-2.762 0-5-2.239-5-5v-.115c0-2.761 2.238-5 5-5s5 2.239 5 5v.115c0 2.762-2.239 5-5 5z" fill="#4d4dff"/></g></g><g><g><path d="m187.58 97.786c-2.762 0-5-2.239-5-5v-.115c0-2.761 2.238-5 5-5s5 2.239 5 5v.115c0 2.762-2.239 5-5 5z" fill="#4d4dff"/></g><g><path d="m204.413 97.786c-2.762 0-5-2.239-5-5v-.115c0-2.761 2.238-5 5-5s5 2.239 5 5v.115c0 2.762-2.238 5-5 5z" fill="#4d4dff"/></g><g><path d="m221.246 97.786c-2.762 0-5-2.239-5-5v-.115c0-2.761 2.238-5 5-5s5 2.239 5 5v.115c0 2.762-2.238 5-5 5z" fill="#4d4dff"/></g><g><path d="m238.08 97.786c-2.762 0-5-2.239-5-5v-.115c0-2.761 2.238-5 5-5s5 2.239 5 5v.115c0 2.762-2.239 5-5 5z" fill="#4d4dff"/></g><g><path d="m254.913 97.786c-2.762 0-5-2.239-5-5v-.115c0-2.761 2.238-5 5-5s5 2.239 5 5v.115c0 2.762-2.238 5-5 5z" fill="#4d4dff"/></g><g><path d="m271.746 97.786c-2.762 0-5-2.239-5-5v-.115c0-2.761 2.238-5 5-5s5 2.239 5 5v.115c0 2.762-2.238 5-5 5z" fill="#4d4dff"/></g><g><path d="m288.58 97.786c-2.762 0-5-2.239-5-5v-.115c0-2.761 2.238-5 5-5s5 2.239 5 5v.115c0 2.762-2.239 5-5 5z" fill="#4d4dff"/></g></g></g><g><g><g><path d="m187.58 390.053c-2.762 0-5-2.239-5-5v-.115c0-2.761 2.238-5 5-5s5 2.239 5 5v.115c0 2.761-2.239 5-5 5z" fill="#4d4dff"/></g><g><path d="m204.413 390.053c-2.762 0-5-2.239-5-5v-.115c0-2.761 2.238-5 5-5s5 2.239 5 5v.115c0 2.761-2.238 5-5 5z" fill="#4d4dff"/></g><g><path d="m221.246 390.053c-2.762 0-5-2.239-5-5v-.115c0-2.761 2.238-5 5-5s5 2.239 5 5v.115c0 2.761-2.238 5-5 5z" fill="#4d4dff"/></g><g><path d="m238.08 390.053c-2.762 0-5-2.239-5-5v-.115c0-2.761 2.238-5 5-5s5 2.239 5 5v.115c0 2.761-2.239 5-5 5z" fill="#4d4dff"/></g><g><path d="m254.913 390.053c-2.762 0-5-2.239-5-5v-.115c0-2.761 2.238-5 5-5s5 2.239 5 5v.115c0 2.761-2.238 5-5 5z" fill="#4d4dff"/></g><g><path d="m271.746 390.053c-2.762 0-5-2.239-5-5v-.115c0-2.761 2.238-5 5-5s5 2.239 5 5v.115c0 2.761-2.238 5-5 5z" fill="#4d4dff"/></g><g><path d="m288.58 390.053c-2.762 0-5-2.239-5-5v-.115c0-2.761 2.238-5 5-5s5 2.239 5 5v.115c0 2.761-2.239 5-5 5z" fill="#4d4dff"/></g></g><g><g><path d="m187.58 404.312c-2.762 0-5-2.239-5-5v-.115c0-2.761 2.238-5 5-5s5 2.239 5 5v.115c0 2.761-2.239 5-5 5z" fill="#4d4dff"/></g><g><path d="m204.413 404.312c-2.762 0-5-2.239-5-5v-.115c0-2.761 2.238-5 5-5s5 2.239 5 5v.115c0 2.761-2.238 5-5 5z" fill="#4d4dff"/></g><g><path d="m221.246 404.312c-2.762 0-5-2.239-5-5v-.115c0-2.761 2.238-5 5-5s5 2.239 5 5v.115c0 2.761-2.238 5-5 5z" fill="#4d4dff"/></g><g><path d="m238.08 404.312c-2.762 0-5-2.239-5-5v-.115c0-2.761 2.238-5 5-5s5 2.239 5 5v.115c0 2.761-2.239 5-5 5z" fill="#4d4dff"/></g><g><path d="m254.913 404.312c-2.762 0-5-2.239-5-5v-.115c0-2.761 2.238-5 5-5s5 2.239 5 5v.115c0 2.761-2.238 5-5 5z" fill="#4d4dff"/></g><g><path d="m271.746 404.312c-2.762 0-5-2.239-5-5v-.115c0-2.761 2.238-5 5-5s5 2.239 5 5v.115c0 2.761-2.238 5-5 5z" fill="#4d4dff"/></g><g><path d="m288.58 404.312c-2.762 0-5-2.239-5-5v-.115c0-2.761 2.238-5 5-5s5 2.239 5 5v.115c0 2.761-2.239 5-5 5z" fill="#4d4dff"/></g></g></g></g><path d="m320.08 255.509v-33.294h-21.431c-1.393-5.091-3.411-9.922-5.967-14.409l15.151-15.156-23.541-23.541-15.156 15.151c-4.487-2.556-9.317-4.574-14.409-5.967v-21.431h-33.294v21.431c-5.091 1.393-9.922 3.411-14.409 5.967l-15.156-15.151-23.541 23.541 15.151 15.156c-2.556 4.487-4.574 9.317-5.967 14.409h-21.431v33.294h21.431c1.393 5.091 3.411 9.922 5.967 14.409l-15.151 15.156 23.541 23.541 15.156-15.151c4.487 2.556 9.317 4.574 14.409 5.967v21.431h33.294v-21.431c5.091-1.393 9.922-3.411 14.409-5.967l15.156 15.151 23.541-23.541-15.151-15.156c2.556-4.487 4.574-9.317 5.967-14.409zm-82 23.761c-22.317 0-40.408-18.091-40.408-40.408s18.091-40.408 40.408-40.408 40.408 18.091 40.408 40.408-18.091 40.408-40.408 40.408z" fill="#ff6c6c"/></g><g><path d="m108.33 469.95c-1.28 0-2.559-.488-3.536-1.464l-11.292-11.292c-.938-.938-1.464-2.209-1.464-3.536s.527-2.598 1.464-3.536l11.292-11.292c1.953-1.952 5.118-1.952 7.071 0l11.292 11.292c.938.938 1.464 2.209 1.464 3.536s-.527 2.598-1.464 3.536l-11.292 11.292c-.976.975-2.256 1.464-3.535 1.464zm-4.222-16.293 4.221 4.221 4.221-4.221-4.221-4.221z" fill="#ff9d33"/></g><g><path d="m21.269 120.952c-1.326 0-2.598-.527-3.536-1.464l-11.292-11.293c-1.953-1.953-1.953-5.119 0-7.071l11.292-11.292c1.953-1.952 5.118-1.952 7.071 0l11.292 11.292c.938.938 1.464 2.209 1.464 3.536s-.527 2.598-1.464 3.536l-11.292 11.292c-.937.937-2.209 1.464-3.535 1.464zm-4.221-16.293 4.221 4.221 4.221-4.221-4.221-4.221z" fill="#ff9d33"/></g><g><path d="m452.013 247.435c-7.175 0-13.012-5.837-13.012-13.012s5.837-13.012 13.012-13.012 13.013 5.837 13.013 13.012-5.838 13.012-13.013 13.012zm0-16.024c-1.661 0-3.012 1.351-3.012 3.012s1.351 3.012 3.012 3.012 3.013-1.351 3.013-3.012c-.001-1.661-1.352-3.012-3.013-3.012z" fill="#6c6cff"/></g><g><path d="m167.08 463.389c-7.175 0-13.012-5.837-13.012-13.012s5.837-13.012 13.012-13.012 13.012 5.837 13.012 13.012-5.838 13.012-13.012 13.012zm0-16.024c-1.661 0-3.012 1.351-3.012 3.012s1.351 3.012 3.012 3.012 3.012-1.351 3.012-3.012-1.352-3.012-3.012-3.012z" fill="#6c6cff"/></g><g><path d="m119.622 34.078c-7.175 0-13.012-5.837-13.012-13.012s5.837-13.012 13.012-13.012 13.012 5.837 13.012 13.012-5.837 13.012-13.012 13.012zm0-16.024c-1.661 0-3.012 1.351-3.012 3.012s1.351 3.012 3.012 3.012 3.012-1.351 3.012-3.012-1.351-3.012-3.012-3.012z" fill="#ff6c6c"/></g></g></g></svg>