<?xml version="1.0" encoding="iso-8859-1"?>
<!-- Generator: Adobe Illustrator 21.0.0, SVG Export Plug-In . SVG Version: 6.00 Build 0)  -->
<svg xmlns="http://www.w3.org/2000/svg" xmlns:xlink="http://www.w3.org/1999/xlink" version="1.1" id="Capa_1" x="0px" y="0px" viewBox="0 0 507.611 507.611" style="enable-background:new 0 0 507.611 507.611;" xml:space="preserve" width="512" height="512">
<path id="XMLID_639_" d="M503.322,6.761c-5.8-5.916-15.298-6.009-21.212-0.209L362.781,123.55  c-4.966-4.418-10.106-8.65-15.424-12.672c-11.406-8.628-28.867-19.657-48.706-15.838c-39.593,7.623-55.758,53.534-61.069,68.621  c-0.999,2.836-3.651,8.831-3.651,8.831l-72.605,72.416c0,0-18.184,7.737-27.282,11.207c-27.423,10.459-53.878,35.441-55.38,66.301  c-0.01,0.189-0.018,0.379-0.025,0.568c-0.631,16.319,6.822,30.405,12.483,39.582c4.056,6.573,8.593,12.828,13.532,18.741  L4.491,479.645c-5.911,5.804-5.999,15.301-0.194,21.212c2.937,2.991,6.818,4.491,10.704,4.491c3.792,0,7.588-1.43,10.508-4.296  l100.412-98.585c7.057,5.836,14.596,11.095,22.559,15.668c20.131,11.559,42.421,14.861,62.907,2.434  c16.677-10.116,29.63-26.57,38.283-43.845c5.495-10.972,6.194-24.09,15.15-33.073c5.679-5.696,69.337-69.341,69.337-69.341  c3.873-1.285,9.701-3.218,9.701-3.218c27.07-8.98,76.145-37.402,68.111-80.695c-1.651-8.901-6.1-16.893-11.167-24.279  c-1.494-2.178-16.59-21.563-16.838-21.321l119.15-116.822C509.028,22.174,509.122,12.677,503.322,6.761z M304.321,124.499  c6.073-1.17,14.226,2.203,24.938,10.306c17.319,13.099,32.578,28.645,45.351,46.206c3.559,4.893,6.974,10.079,7.861,14.859  c1.351,7.281-1.716,14.473-7.218,21.036l-85.176-85.176C294.552,127.873,299.29,125.467,304.321,124.499z M238.19,212.729  l57.589,57.532l-24.508,24.508l-57.904-57.903C222.686,228.021,231.091,219.909,238.19,212.729z M230.837,341.653  c-2.223,6.699-3.447,10.391-4.122,12.645l-0.065-0.021c-6.418,19.349-25.974,43.071-41.568,44.659  c-5.676,0.575-12.56-1.588-21.664-6.816c-19.055-10.941-35.226-26.608-46.765-45.307c-5.723-9.275-8.276-16.479-8.036-22.668  c0.644-16.638,24.002-36.658,44.457-43.444l12.623-4.187c6.316-2.096,12.142-5.69,16.845-10.394  c2.131-2.131,5.258-5.123,8.994-8.658l58.522,58.522l-8.827,8.827C236.525,329.514,232.932,335.339,230.837,341.653z   M317.118,249.173l-58.988-58.93c0.948-1.362,12.21-28.439,14.572-33.464l78.541,78.541  C345.583,238.346,318.397,248.22,317.118,249.173z"/>















</svg>
